<svg xmlns="http://www.w3.org/2000/svg" xmlns:xlink="http://www.w3.org/1999/xlink" viewBox="0 0 248.184 110">
  <defs>
    <style>
      .cls-1 {
        fill: #ffffff;
      }

      .cls-2 {
      .cls-2 {
        clip-path: url(#clip-path);
      }

    </style>
    <clipPath id="clip-path">
      <rect id="Rectangle_708" data-name="Rectangle 708" width="248.184" height="110"/>
    </clipPath>
  </defs>
  <g id="Group_213" data-name="Group 213" transform="translate(0 0)">
    <path id="Path_2192" data-name="Path 2192" class="cls-1" d="M56.218,60.1,24.8,65.173l4.745,32.073,32.564-5.236Z" transform="translate(12.621 8.172)"/>
    <path id="Path_2193" data-name="Path 2193" class="cls-1" d="M50.845,64.1,49.7,95.682l31.909,1.145,1.145-31.419Z" transform="translate(27.74 10.718)"/>
    <path id="Path_2194" data-name="Path 2194" class="cls-1" d="M82.555,38.9,51.3,45.282l6.545,30.928,31.091-6.382Z" transform="translate(28.679 -4.392)"/>
    <path id="Path_2195" data-name="Path 2195" class="cls-1" d="M83.909,17.3,52,17.955l.818,31.582,31.746-.655Z" transform="translate(29.139 -17.3)"/>
    <path id="Path_2196" data-name="Path 2196" class="cls-1" d="M1.5,96.019l31.746,2.945,2.945-31.419L4.445,64.6Z" transform="translate(-1.5 11.036)"/>
    <path id="Path_2197" data-name="Path 2197" class="cls-1" d="M111.918,27.9h-7.855l-17.673,18v-18H80.5V68.81h5.891V48.682L104.882,68.81h8.509l-20.946-21.6Z" transform="translate(46.426 -10.986)"/>
    <rect id="Rectangle_706" data-name="Rectangle 706" class="cls-1" width="5.564" height="27.982" transform="translate(167.435 29.475)"/>
    <rect id="Rectangle_707" data-name="Rectangle 707" class="cls-1" width="6.218" height="6.218" transform="translate(167.106 17.056)"/>
    <g id="Group_207" data-name="Group 207">
      <g id="Group_206" data-name="Group 206" class="cls-2">
        <path id="Path_2198" data-name="Path 2198" class="cls-1" d="M152.749,52.882c0,4.348-2.9,7.731-8.214,7.731-2.577,0-5.476-1.611-5.476-4.832,0-5.154,7.247-5.637,10.307-5.637,1.127,0,2.255.161,3.543.161v2.577Zm5.637,11.435a42.949,42.949,0,0,1-.161-5.8V46.44c0-8.053-3.382-12.24-11.918-12.24a19.461,19.461,0,0,0-9.824,2.738l.322,4.671a14.493,14.493,0,0,1,8.536-3.06c5.476,0,7.408,2.577,7.408,7.731-2.094-.161-3.7-.161-5.8-.161-5.637,0-13.851,2.255-13.851,9.663,0,6.442,4.509,9.18,10.952,9.18a11.087,11.087,0,0,0,9.18-4.509h.161v3.865h4.993Z" transform="translate(78.847 -6.982)"/>
      </g>
    </g>
    <path id="Path_2199" data-name="Path 2199" class="cls-1" d="M113.7,33.036h10.964V68.71h5.891V33.036h12.927V27.8H113.7Z" transform="translate(66.614 -11.046)"/>
    <g id="Group_209" data-name="Group 209">
      <g id="Group_208" data-name="Group 208" class="cls-2">
        <path id="Path_2200" data-name="Path 2200" class="cls-1" d="M85.554,76.25h4.993c3.221,0,7.086-1.611,7.086-6.281,0-4.509-4.671-6.12-7.892-6.12H85.393v12.4ZM80.4,59.5h9.341c7.247,0,13.367,2.577,13.367,10.63,0,7.892-6.12,10.63-12.562,10.63H85.554V94.771H80.4V59.5Z" transform="translate(46.671 8.465)"/>
      </g>
    </g>
    <path id="Path_2201" data-name="Path 2201" class="cls-1" d="M100.7,59.5h5.236V90.755h15.055v4.582H100.7Z" transform="translate(58.841 7.79)"/>
    <g id="Group_212" data-name="Group 212">
      <g id="Group_210" data-name="Group 210" class="cls-2">
        <path id="Path_2202" data-name="Path 2202" class="cls-1" d="M146.4,80.115c0,9.824-4.993,15.139-13.851,15.139-8.7,0-13.851-5.315-13.851-15.139V59.5h5.154V79.471c0,6.764,2.094,11.435,8.7,11.435s8.7-4.671,8.7-11.435V59.5H146.4Z" transform="translate(70.055 8.465)"/>
      </g>
      <g id="Group_211" data-name="Group 211" class="cls-2">
        <path id="Path_2203" data-name="Path 2203" class="cls-1" d="M161.06,65.059a16.309,16.309,0,0,0-6.6-1.449c-2.9,0-6.281.966-6.281,4.671,0,6.764,15.3,5.154,15.3,16.75,0,7.57-5.8,10.469-13.045,10.469a21.506,21.506,0,0,1-7.247-1.45l.483-4.671a23.826,23.826,0,0,0,7.408,1.772c2.9,0,6.925-1.611,6.925-5.8,0-7.892-15.3-5.637-15.3-16.589,0-6.281,4.993-9.663,11.435-9.663a24.9,24.9,0,0,1,7.57,1.288Z" transform="translate(84.708 8.221)"/>
      </g>
    </g>
  </g>
</svg>
