<svg id="Standart_Icons_1" xmlns="http://www.w3.org/2000/svg" viewBox="0 0 36 36"><title>Eingewöhnung</title><circle cx="18" cy="5.84" r="3.86"/><path d="M18.9,20.55h3.53a0,0,0,0,1,0,0V32.22A1.77,1.77,0,0,1,20.67,34h0a1.77,1.77,0,0,1-1.77-1.77V20.55A0,0,0,0,1,18.9,20.55Z"/><rect x="13.89" y="10.85" width="8.55" height="9.69"/><path d="M13.89,20.55h3.53a0,0,0,0,1,0,0V32.22A1.77,1.77,0,0,1,15.65,34h0a1.77,1.77,0,0,1-1.77-1.77V20.55A0,0,0,0,1,13.89,20.55Z"/><path d="M22.77,1.64H26.3a0,0,0,0,1,0,0V14.57a1.77,1.77,0,0,1-1.77,1.77h0a1.77,1.77,0,0,1-1.77-1.77V1.64a0,0,0,0,1,0,0Z" transform="translate(39.14 30.65) rotate(-144.1)"/><path d="M11.47,1.64h0A1.77,1.77,0,0,1,13.23,3.4V16.34a0,0,0,0,1,0,0H9.7a0,0,0,0,1,0,0V3.4a1.77,1.77,0,0,1,1.77-1.77Z" transform="translate(-3.09 8.43) rotate(-35.9)"/></svg>