<svg id="Standart_Icons_1" xmlns="http://www.w3.org/2000/svg" viewBox="0 0 36 36"><defs><style>.cls-1{fill:none;stroke:#000;stroke-linecap:round;stroke-linejoin:round;stroke-width:2px;}</style></defs><title>Körper, Gesundheit und Ernährung</title><path class="cls-1" d="M28.31,11.67C25,9,21.19,10.91,18,10.91S11,9,7.69,11.67c-3.07,2.47-4.09,10,0,16.59,4,6.36,8,4.2,10.26,4.2s6.28,2.16,10.26-4.2C32.4,21.63,31.38,14.14,28.31,11.67Z"/><path d="M24.84,2h0V3.39a4.78,4.78,0,0,1-4.79,4.79h0V6.82A4.79,4.79,0,0,1,24.84,2Z"/><path class="cls-1" d="M18,10.92c0-2.74-1.94-6-4.79-6.84"/></svg>