<svg id="Standart_Icons_1" xmlns="http://www.w3.org/2000/svg" viewBox="0 0 36 36"><defs><style>.cls-1{fill:none;stroke:#000;stroke-linecap:round;stroke-linejoin:round;stroke-width:2px;}</style></defs><title>Soziale, kulturelle und interkulturelle Bildung</title><path d="M31.66,10.84A12,12,0,0,0,30,9.24a13,13,0,0,0-8-2.7A13.22,13.22,0,0,0,18.61,7l-.09,0-.05,0A11.62,11.62,0,0,0,14,5.58a10.24,10.24,0,0,0-1.36-.08q-.39,0-.75,0C6.38,5.85,2,9.81,2,14.63a8.17,8.17,0,0,0,1.6,4.82v5.69a1,1,0,0,0,.57.93,1,1,0,0,0,.47.11A1,1,0,0,0,5.26,26L9,23.18a11.55,11.55,0,0,0,3.37.56h.32A12.7,12.7,0,0,0,22,27.65a13.26,13.26,0,0,0,4.29-.7l4.29,3.34a1,1,0,0,0,.6.21,1,1,0,0,0,1-1V22.7A9.53,9.53,0,0,0,34,17.09,9.64,9.64,0,0,0,31.66,10.84ZM11.08,21.54l-.41-.07A9.27,9.27,0,0,1,9.13,21a1,1,0,0,0-1,.15L5.67,23.05v-4a1,1,0,0,0-.22-.64,6.18,6.18,0,0,1-1.38-3.82c0-3.63,3.35-6.62,7.65-7a6,6,0,0,1,.95-.06,6.87,6.87,0,0,1,1.12.08A7.9,7.9,0,0,1,15.63,8a8.92,8.92,0,0,1,2.55,1.19,6.64,6.64,0,0,1,3.1,5.42,5.58,5.58,0,0,1-.13,1.23,6.49,6.49,0,0,1-.82,2,8.86,8.86,0,0,1-7.08,3.8,3.91,3.91,0,0,1-.49,0h-.09A9.31,9.31,0,0,1,11.08,21.54Zm19.29.16a1.08,1.08,0,0,0-.22.64v5L27,25a.9.9,0,0,0-.6-.21,1.07,1.07,0,0,0-.35.06,11.39,11.39,0,0,1-4.11.75,11.06,11.06,0,0,1-6.55-2.07l-.05,0A10.34,10.34,0,0,0,22.6,18a7.83,7.83,0,0,0,.66-2.16,8,8,0,0,0,.09-1.2,8.33,8.33,0,0,0-2.58-5.94h.07c.37,0,.75-.06,1.13-.06a11,11,0,0,1,7.32,2.69A8.27,8.27,0,0,1,30.71,13,7.33,7.33,0,0,1,32,17.09,7.53,7.53,0,0,1,30.37,21.7Z"/><path d="M11,24.68a.25.25,0,0,0,0,.07,9.31,9.31,0,0,0,1.59.13A10.84,10.84,0,0,1,11,24.68Z"/><line class="cls-1" x1="9" y1="13" x2="16" y2="13"/><line class="cls-1" x1="9" y1="17" x2="12" y2="17"/></svg>