<svg id="Standart_Icons_1" xmlns="http://www.w3.org/2000/svg" viewBox="0 0 36 36"><defs><style>.cls-1{fill:none;stroke:#000;stroke-miterlimit:10;stroke-width:2px;}</style></defs><title>Naturwissenschaftlich-technische Bildung</title><path d="M18,4c3.2,0,6.77,5.75,6.77,14S21.2,32,18,32s-6.77-5.75-6.77-14S14.8,4,18,4m0-2C13.15,2,9.23,9.16,9.23,18S13.15,34,18,34s8.77-7.16,8.77-16S22.85,2,18,2Z"/><path d="M18,4c3.73,0,7,6.54,7,14s-3.27,14-7,14-7-6.54-7-14S14.27,4,18,4m0-2C13,2,9,9.16,9,18s4,16,9,16,9-7.16,9-16S23,2,18,2Z"/><path d="M18,11c7.46,0,14,3.27,14,7s-6.54,7-14,7S4,21.73,4,18s6.54-7,14-7m0-2C9.16,9,2,13,2,18s7.16,9,16,9,16-4,16-9S26.84,9,18,9Z"/><circle class="cls-1" cx="18" cy="18" r="2.5"/></svg>