<svg id="Standart_Icons_1" xmlns="http://www.w3.org/2000/svg" viewBox="0 0 36 36"><defs><style>.cls-1{fill:none;stroke:#069999;stroke-linecap:round;stroke-linejoin:round;stroke-width:2px;} .cls-2{fill:#069999}</style></defs><title>Sprache und Kommunikation</title><path class="cls-2" d="M18,4c7.72,0,14,5.56,14,12.4S25.72,28.8,18,28.8a15.53,15.53,0,0,1-5.59-1,2,2,0,0,0-.72-.14,2,2,0,0,0-.55.08L4.38,29.64l1-7.19a2,2,0,0,0-.19-1.14A11.16,11.16,0,0,1,4,16.4C4,9.56,10.28,4,18,4m0-2C9.16,2,2,8.45,2,16.4a13.08,13.08,0,0,0,1.36,5.79L2,32.4l9.69-2.77A17.47,17.47,0,0,0,18,30.8c8.84,0,16-6.45,16-14.4S26.84,2,18,2Z"/><line class="cls-1" x1="12" y1="17" x2="24" y2="17"/><line class="cls-1" x1="12" y1="22" x2="19" y2="22"/><line class="cls-1" x1="12" y1="12" x2="24" y2="12"/></svg>