<svg id="Standart_Icons_1" xmlns="http://www.w3.org/2000/svg" viewBox="0 0 36 36"><defs><style>.cls-1{fill:#069999;}</style></defs><title>Bewegung</title><path class="cls-1" d="M33,32H30.51l-7.7-10.59A1,1,0,0,0,22,21H19V12.13l1.29,1.29a1,1,0,0,0,1.42,0,1,1,0,0,0,0-1.42l-9-9a1,1,0,0,0-1.42,0l-5,5L5,9.29,2.29,12a1,1,0,1,0,1.42,1.42L5,12.13V29a.49.49,0,0,0,0,.12.37.37,0,0,0,0,.11V33a1,1,0,0,0,2,0V30H17v3a1,1,0,0,0,2,0V23h2.49l7.7,10.59A1,1,0,0,0,30,34h3a1,1,0,1,0,0-2ZM17,28H7V23H17Zm0-7H7V10h.15l2-2L12,5.12,14.86,8l2,2H17Z"/><polygon points="7.15 9.98 7 10.13 7 9.98 7.15 9.98"/><polygon points="17 9.98 17 10.13 16.85 9.98 17 9.98"/><path class="cls-1" d="M12,12a3,3,0,1,0,3,3A3,3,0,0,0,12,12Zm0,4a1,1,0,1,1,1-1A1,1,0,0,1,12,16Z"/></svg>