<svg id="Standart_Icons_1" xmlns="http://www.w3.org/2000/svg" viewBox="0 0 36 36"><defs><style>.cls-1{fill:none;stroke:#069999;stroke-linecap:round;stroke-miterlimit:10;stroke-width:2px;} .cls-2{fill:#069999}</style></defs><title>Ökologische Bildung</title><path class="cls-2" d="M16.75,6h0a9.31,9.31,0,0,1,5.77,2.36l2.09,2.09c2.95,3.61,3.14,7.5.48,10.16C21.21,24.44,11.54,26,6.58,26.34c.33-5,1.91-14.63,5.77-18.49A6.06,6.06,0,0,1,16.75,6m0-2a8.12,8.12,0,0,0-5.81,2.47C5.42,12,4.59,26.07,4.56,26.67l-.1,1.79,1.79-.1c.6,0,14.72-.85,20.24-6.37,3.47-3.47,3.24-8.52-.41-12.92L23.86,6.84A11.3,11.3,0,0,0,16.74,4Z"/><line class="cls-1" x1="12.95" y1="19.97" x2="26.38" y2="6.54"/><line class="cls-1" x1="17.9" y1="20.68" x2="17.9" y2="15.03"/><line class="cls-1" x1="15.78" y1="11.49" x2="21.43" y2="11.49"/></svg>