<svg id="Standart_Icons_1" xmlns="http://www.w3.org/2000/svg" viewBox="0 0 36 36"><defs><style>.cls-1{fill:none;stroke:#069999;stroke-linecap:round;stroke-linejoin:round;stroke-width:2px;} .cls-2{fill:#069999;}</style></defs><title>Mathematische Bildung</title><line class="cls-1" x1="8" y1="28" x2="14" y2="22"/><line class="cls-1" x1="14" y1="28" x2="8" y2="22"/><line class="cls-1" x1="11" y1="16" x2="11" y2="8"/><line class="cls-1" x1="15" y1="12" x2="7" y2="12"/><line class="cls-1" x1="28" y1="12" x2="21" y2="12"/><path class="cls-2" d="M32,4V32H4V4H32m0-2H4A2,2,0,0,0,2,4V32a2,2,0,0,0,2,2H32a2,2,0,0,0,2-2V4a2,2,0,0,0-2-2Z"/><line class="cls-1" x1="21" y1="25" x2="28" y2="25"/><path class="cls-2" d="M24.5,21a1,1,0,1,0,1,1,1,1,0,0,0-1-1Z"/><path class="cls-2" d="M24.5,27a1,1,0,1,0,1,1,1,1,0,0,0-1-1Z"/></svg>