<svg id="Standart_Icons_1" xmlns="http://www.w3.org/2000/svg" viewBox="0 0 36 36"><defs><style>.cls-1{fill:none;stroke:#069999;stroke-linecap:round;stroke-linejoin:round;stroke-width:2px;} .cls-2{fill:#069999;}</style></defs><title>Inklusion</title><path class="cls-1" d="M20,19.27h5a6,6,0,0,1,6,6v4.95"/><line class="cls-1" x1="10" y1="11.21" x2="20" y2="11.21"/><path class="cls-1" d="M9,15.21v-9a2,2,0,0,0-2-2H4"/><circle class="cls-1" cx="28" cy="30.22" r="3"/><circle class="cls-2" cx="12" cy="24.21" r="1"/><path class="cls-2" d="M12,22.21a2,2,0,1,0,2,2,2,2,0,0,0-2-2Z"/><path class="cls-2" d="M12,16.21a8,8,0,1,1-8,8,8,8,0,0,1,8-8m0-2a10,10,0,1,0,10,10,10,10,0,0,0-10-10Z"/></svg>