<svg id="Standart_Icons_1" xmlns="http://www.w3.org/2000/svg" viewBox="0 0 36 36"><defs><style>.cls-1,.cls-2{fill:none;stroke:#069999;stroke-width:2px;}.cls-1{stroke-linecap:round;stroke-linejoin:round;}.cls-2{stroke-miterlimit:10;} .cls-3{fill:#069999}</style></defs><title>Musisch-ästhetische Bildung</title><polyline class="cls-1" points="33 29 33 3 12 3 12 24"/><line class="cls-2" x1="33" y1="8" x2="12" y2="8"/><path class="cls-3" d="M7.5,21.69c1.9,0,3.5,1.24,3.5,2.71s-1.6,2.71-3.5,2.71S4,25.87,4,24.4s1.6-2.71,3.5-2.71m0-2c-3,0-5.5,2.11-5.5,4.71s2.46,4.71,5.5,4.71S13,27,13,24.4s-2.46-4.71-5.5-4.71Z"/><path class="cls-3" d="M28.4,26.4c2,0,3.6,1.28,3.6,2.8S30.35,32,28.4,32s-3.6-1.28-3.6-2.8,1.65-2.8,3.6-2.8m0-2c-3.09,0-5.6,2.15-5.6,4.8S25.31,34,28.4,34,34,31.85,34,29.2s-2.51-4.8-5.6-4.8Z"/></svg>