<svg id="Ebene_1" data-name="Ebene 1" xmlns="http://www.w3.org/2000/svg" viewBox="0 0 48 48"><defs><style>.cls-1,.cls-3{fill:none;}.cls-2{fill:#c9c5c5;}.cls-3{stroke:#c9c5c5;stroke-width:3px;}</style></defs><title>gruppentagebuch Icons quick</title><g id="Gruppe_1484" data-name="Gruppe 1484"><g id="Pfad_2623" data-name="Pfad 2623"><path class="cls-1" d="M23.5,0A24,24,0,1,1-.5,24,24,24,0,0,1,23.5,0Z"/><path class="cls-2" d="M23.5,3a20.71,20.71,0,0,0-8.17,1.65A21,21,0,0,0,4.15,15.83a21.05,21.05,0,0,0,0,16.34A21,21,0,0,0,15.33,43.35a21.05,21.05,0,0,0,16.34,0A21,21,0,0,0,42.85,32.17a21.05,21.05,0,0,0,0-16.34A21,21,0,0,0,31.67,4.65,20.71,20.71,0,0,0,23.5,3m0-3A24,24,0,1,1-.5,24,24,24,0,0,1,23.5,0Z"/></g><line id="Linie_206" data-name="Linie 206" class="cls-3" x1="8" y1="40.5" x2="40" y2="8.5"/></g></svg>