<svg id="Ebene_1" data-name="Ebene 1" xmlns="http://www.w3.org/2000/svg" viewBox="0 0 64 64"><defs><style>.cls-1{fill:#595959;}</style></defs><title>gruppentagebuch Icons quick</title><path id="Pfad_2454" data-name="Pfad 2454" class="cls-1" d="M31.75,1a31,31,0,1,0,31,31A31,31,0,0,0,31.75,1ZM20,28A12,12,0,0,1,34,16.16,12.21,12.21,0,0,1,44,28.34v2c0,6.28-4.17,11.59-10,12.52A12,12,0,0,1,20,31ZM31.75,61A28.88,28.88,0,0,1,14,54.88,15.9,15.9,0,0,1,27.75,47h8a15.9,15.9,0,0,1,13.79,7.88A28.88,28.88,0,0,1,31.75,61Z"/></svg>