<svg id="Layer_1" data-name="Layer 1" xmlns="http://www.w3.org/2000/svg" viewBox="0 0 24 24"><defs><style>.cls-1{fill:#595959;}</style></defs><title>Gruppentagebuch</title><path class="cls-1" d="M5,4H6A0,0,0,0,1,6,4V23a0,0,0,0,1,0,0H5a2,2,0,0,1-2-2V6A2,2,0,0,1,5,4Z"/><path class="cls-1" d="M19,4H7V23H19a2,2,0,0,0,2-2V6A2,2,0,0,0,19,4Zm-1,7.22a.39.39,0,0,1-.4.38H10.4a.39.39,0,0,1-.4-.38v-3a.39.39,0,0,1,.4-.38h7.2a.39.39,0,0,1,.4.38Z"/><polygon class="cls-1" points="18.5 0.84 17 2.25 17 3 20 3 20 2.25 18.5 0.84"/></svg>