<svg id="Layer_1" data-name="Layer 1" xmlns="http://www.w3.org/2000/svg" viewBox="0 0 24 24"><defs><style>.cls-1{fill:#fff;}</style></defs><title>Hilfe</title><circle cx="12" cy="12" r="11"/><path class="cls-1" d="M13.36,16H10.45c0-.42,0-.67,0-.76a5.11,5.11,0,0,1,.46-2.33,7.17,7.17,0,0,1,1.88-2.05,13.37,13.37,0,0,0,1.67-1.5,2,2,0,0,0,.42-1.23,2.06,2.06,0,0,0-.74-1.6,2.9,2.9,0,0,0-2-.67,3,3,0,0,0-2,.7A3.7,3.7,0,0,0,8.94,8.68L6,8.31A4.88,4.88,0,0,1,7.74,4.84,6.18,6.18,0,0,1,12,3.42a6.4,6.4,0,0,1,4.39,1.44A4.35,4.35,0,0,1,18,8.22a3.69,3.69,0,0,1-.6,2,13.2,13.2,0,0,1-2.56,2.58,4.77,4.77,0,0,0-1.26,1.35A4.59,4.59,0,0,0,13.36,16ZM10,21V18h3v3Z"/></svg>