<svg id="Layer_1" data-name="Layer 1" xmlns="http://www.w3.org/2000/svg" viewBox="0 0 50 50"><defs><style>.cls-1{fill:#fff;}.cls-2,.cls-4{fill:none;stroke:#cf2525;}.cls-3{fill:#cf2525;}.cls-4{stroke-linecap:round;}</style></defs><title>Krank</title><g id="Gruppe_1101" data-name="Gruppe 1101"><g id="Ellipse_133" data-name="Ellipse 133"><circle class="cls-1" cx="25" cy="24" r="24"/><circle class="cls-2" cx="25" cy="24" r="23.5"/></g><path id="Differenzmenge_26" data-name="Differenzmenge 26" class="cls-3" d="M25,48A23.7,23.7,0,0,1,8,40.88,24.16,24.16,0,0,1,1.37,28H48.62A24.21,24.21,0,0,1,42,40.88,23.72,23.72,0,0,1,25,48Z"/><path id="Rechteck_1181" data-name="Rechteck 1181" class="cls-3" d="M10.73,15.26h0a4.56,4.56,0,0,1,4.57,4.56h0a4.56,4.56,0,0,1-4.57,4.57h0a4.56,4.56,0,0,1-4.56-4.57h0A4.56,4.56,0,0,1,10.73,15.26Z"/><path id="Rechteck_1182" data-name="Rechteck 1182" class="cls-3" d="M16.6,16.56H39a5,5,0,0,1,5,5V27H16.6V16.56Z"/><line id="Linie_166" data-name="Linie 166" class="cls-4" x1="8.13" y1="26.35" x2="14.65" y2="26.35"/></g></svg>