<?xml version="1.0" encoding="iso-8859-1"?>
<!-- Generator: Adobe Illustrator 19.0.0, SVG Export Plug-In . SVG Version: 6.00 Build 0)  -->
<svg version="1.1" id="Layer_1" xmlns="http://www.w3.org/2000/svg" xmlns:xlink="http://www.w3.org/1999/xlink" x="0px" y="0px"
	 viewBox="0 0 218.206 218.206" style="enable-background:new 0 0 218.206 218.206;" xml:space="preserve">
<g>
	<g>
		<path d="M109.103,0C48.943,0,0,48.943,0,109.103c0,60.16,48.943,109.103,109.103,109.103c60.16,0,109.103-48.943,109.103-109.103
			C218.206,48.943,169.264,0,109.103,0z M167.551,191.776c-16.528,11.72-36.69,18.638-58.448,18.638s-41.919-6.919-58.448-18.638
			v-19.441c0-8.105,7.114-14.7,15.856-14.7h18.261c1.579,0,3.002-0.955,3.604-2.412l7.894-19.187
			c3.478,0.21,7.107,0.344,10.885,0.344c3.821,0,7.487-0.136,11-0.351l9.12,19.369c0.643,1.366,2.017,2.237,3.526,2.237h20.894
			c8.743,0,15.856,6.595,15.856,14.7V191.776z M147.235,123.993c-6.712,1.571-21.992,4.593-40.08,4.593
			c-18.088,0-33.368-3.021-40.08-4.593c2.239-9.098,7.569-32.143,7.569-45.354v-9.056c0-14.734,11.987-26.72,26.72-26.72h11.583
			c14.734,0,26.72,11.987,26.72,26.72v9.056C139.667,91.851,144.996,114.895,147.235,123.993z M175.345,185.661v-13.326
			c0-12.401-10.609-22.493-23.649-22.493h-18.423l-6.826-14.499c15.468-1.624,26.005-4.61,26.602-4.782
			c2.03-0.586,3.221-2.687,2.687-4.73c-0.082-0.316-8.274-31.823-8.274-47.192v-9.056c0-19.03-15.484-34.513-34.514-34.513h-11.583
			c-19.03,0-34.513,15.483-34.513,34.513v9.056c0,15.369-8.192,46.877-8.274,47.192c-0.535,2.043,0.657,4.144,2.687,4.73
			c0.6,0.173,11.246,3.19,26.853,4.809l-5.953,14.472H66.511c-13.041,0-23.649,10.091-23.649,22.493v13.326
			c-21.456-18.59-35.069-46.005-35.069-76.557c0-55.864,45.448-101.31,101.31-101.31s101.31,45.446,101.31,101.31
			C210.414,139.656,196.801,167.07,175.345,185.661z"/>
	</g>
</g>
<g>
</g>
<g>
</g>
<g>
</g>
<g>
</g>
<g>
</g>
<g>
</g>
<g>
</g>
<g>
</g>
<g>
</g>
<g>
</g>
<g>
</g>
<g>
</g>
<g>
</g>
<g>
</g>
<g>
</g>
</svg>
