<svg id="Layer_1" data-name="Layer 1" xmlns="http://www.w3.org/2000/svg" viewBox="0 0 46 46"><defs><style>.cls-1{fill:none;}.cls-2{fill:#cb2026;}.cls-3{fill:#138743;}</style></defs><title>Artboard 22</title><circle class="cls-1" cx="23" cy="23" r="20.18"/><path class="cls-2" d="M44.59,24.41A1.41,1.41,0,0,1,43.18,23,20.18,20.18,0,1,1,23,2.82,1.41,1.41,0,0,1,23,0,23,23,0,1,0,46,23,1.41,1.41,0,0,1,44.59,24.41Z"/><path class="cls-3" d="M21.59,1.41A1.41,1.41,0,0,0,23,2.82,20.2,20.2,0,0,1,43.18,23,1.41,1.41,0,1,0,46,23,23,23,0,0,0,23,0,1.41,1.41,0,0,0,21.59,1.41Z"/></svg>