<svg id="Layer_1" data-name="Layer 1" xmlns="http://www.w3.org/2000/svg" viewBox="0 0 46 46"><defs><style>.cls-1{fill:none;}.cls-2{fill:#cb2026;}.cls-3{fill:#138743;}</style></defs><title>Artboard 23</title><path class="cls-1" d="M43.18,23A20.18,20.18,0,1,0,23,43.18h0A20.2,20.2,0,0,0,43.18,23Z"/><path class="cls-2" d="M23,46a1.41,1.41,0,0,1,0-2.82A20.18,20.18,0,1,1,43.18,23h0A20.2,20.2,0,0,0,23,2.82,1.41,1.41,0,0,1,23,0,23,23,0,1,0,46,23h0A23,23,0,0,1,23,46Z"/><path class="cls-3" d="M21.59,1.41A1.41,1.41,0,0,0,23,2.82,20.2,20.2,0,0,1,43.18,23h0A20.2,20.2,0,0,1,23,43.18h0A1.41,1.41,0,0,0,23,46,23,23,0,0,0,46,23h0A23,23,0,0,0,23,0h0A1.42,1.42,0,0,0,21.59,1.41Z"/></svg>