<?xml version="1.0" encoding="utf-8"?>
<!-- Generator: Adobe Illustrator 23.0.4, SVG Export Plug-In . SVG Version: 6.00 Build 0)  -->
<svg version="1.1" id="Layer_1" xmlns="http://www.w3.org/2000/svg" xmlns:xlink="http://www.w3.org/1999/xlink" x="0px" y="0px"
	 viewBox="0 0 48 48" style="enable-background:new 0 0 48 48;" xml:space="preserve">
<style type="text/css">
	.st0{fill:#718792;}
	.st1{fill:#FFFFFF;}
</style>
<g id="Group_2701" transform="translate(-8662 -4837)">
	<circle id="Ellipse_374" class="st0" cx="8686" cy="4861" r="24"/>
	<path id="Path_2692" class="st1" d="M8684.3,4864.6c0.1,1.3-0.5,2.5-1.6,3.3c-1.3,0.9-2.8,1.3-4.3,1.2c-1.5,0.1-3.1-0.2-4.5-0.8
		v-2.4c0.8,0.3,1.5,0.6,2.3,0.8c0.8,0.2,1.5,0.3,2.3,0.3c0.8,0.1,1.6-0.1,2.3-0.6c0.5-0.4,0.8-0.9,0.7-1.5c0-0.6-0.2-1.1-0.7-1.5
		c-0.9-0.6-1.8-1.1-2.8-1.4c-1.2-0.4-2.3-1.1-3.1-2c-0.6-0.8-0.9-1.7-0.9-2.7c0-1.2,0.5-2.3,1.4-3.1c1.1-0.8,2.5-1.2,3.9-1.1
		c1.6,0,3.2,0.3,4.6,1l-0.8,2.1c-1.2-0.5-2.5-0.8-3.8-0.9c-0.7,0-1.4,0.1-1.9,0.5c-0.4,0.3-0.7,0.9-0.7,1.4c0,0.4,0.1,0.7,0.3,1
		c0.2,0.3,0.5,0.6,0.9,0.8c0.7,0.4,1.4,0.7,2.2,1c0.9,0.3,1.8,0.8,2.6,1.3c0.5,0.4,0.9,0.8,1.2,1.4
		C8684.2,4863.3,8684.3,4863.9,8684.3,4864.6z M8693.3,4868.8h-2.6v-13.4h-4.7v-2.2h12.1v2.2h-4.7V4868.8z"/>
</g>
</svg>
