<svg id="Layer_1" data-name="Layer 1" xmlns="http://www.w3.org/2000/svg" viewBox="0 0 24 24"><defs><style>.cls-1{fill:#000;}</style></defs><title>Einstellungen</title><path class="cls-1" d="M22.64,11l-2.81-.66a8.11,8.11,0,0,0-.54-1.62L21.23,5.6a.45.45,0,0,0-.1-.61L19.72,3.58c-.2-.2-.47-.25-.61-.11L16.27,5.24a8.12,8.12,0,0,0-2.08-.93L13.5,1.36c0-.2-.22-.36-.5-.36H11c-.28,0-.5.16-.5.36L9.81,4.31A8.35,8.35,0,0,0,8.2,5l-3-1.84a.44.44,0,0,0-.6.1L3.22,4.64a.44.44,0,0,0-.1.6L5,8.2a7.85,7.85,0,0,0-.79,2.14L1.36,11c-.2,0-.36.22-.36.5v2c0,.28.16.5.36.5l3.13.73a8.44,8.44,0,0,0,.75,1.54L3.47,19.11c-.14.14-.09.41.11.61L5,21.13a.45.45,0,0,0,.61.1l3.12-1.94a7.86,7.86,0,0,0,1.09.4l.69,2.95c0,.2.22.36.5.36h2c.28,0,.5-.16.5-.36l.69-2.95A8.35,8.35,0,0,0,15.8,19l3,1.84a.44.44,0,0,0,.6-.1l1.42-1.42a.44.44,0,0,0,.1-.6L19,15.8a6.81,6.81,0,0,0,.47-1.07L22.64,14c.2,0,.36-.22.36-.5v-2C23,11.22,22.84,11,22.64,11ZM12,16a4,4,0,1,1,4-4A4,4,0,0,1,12,16Z"/></svg>