<svg xmlns="http://www.w3.org/2000/svg" viewBox="0 0 51.96 60"><defs><style>.cls-1{fill:#037c8d;}.cls-2{fill:#fff;}</style></defs><title>Speichern Weiß Türkis</title><g id="Ebene_2" data-name="Ebene 2"><g id="Ebene_2-2" data-name="Ebene 2"><polygon class="cls-1" points="0 15 0 45 25.98 60 51.96 45 51.96 15 25.98 0 0 15"/><path class="cls-2" d="M32,15H14a3,3,0,0,0-3,3V42a3,3,0,0,0,3,3H38a3,3,0,0,0,3-3V24Zm-6,3v4.5H20V18Zm6,24H20V33H32Zm6,0H35V31.5a1.5,1.5,0,0,0-1.5-1.5h-15A1.51,1.51,0,0,0,17,31.5V42H14V18h3v6a1.51,1.51,0,0,0,1.5,1.5h9A1.5,1.5,0,0,0,29,24V18h1.76L38,25.24Z"/></g></g></svg>