<svg id="Layer_1" data-name="Layer 1" xmlns="http://www.w3.org/2000/svg" viewBox="0 0 24 24"><defs><style>.cls-1{fill:#558b31;}</style></defs><title>Artboard 1</title><g id="Selection_Control_Radio_On_Enabled" data-name="Selection Control Radio On Enabled"><path id="Selection_Control_Radio_On_Enabled-2" data-name="Selection Control Radio On Enabled-2" class="cls-1" d="M12,0A12,12,0,1,0,24,12,12,12,0,0,0,12,0Zm0,21.6A9.6,9.6,0,0,1,2.4,12h0A9.6,9.6,0,0,1,12,2.4h0A9.6,9.6,0,0,1,21.6,12h0A9.6,9.6,0,0,1,12,21.6ZM12,18a6,6,0,1,0-6-6A6,6,0,0,0,12,18Z"/></g></svg>