<?xml version="1.0" encoding="UTF-8" standalone="no"?>
<!DOCTYPE svg PUBLIC "-//W3C//DTD SVG 1.1//EN" "http://www.w3.org/Graphics/SVG/1.1/DTD/svg11.dtd">
<svg width="100%" height="100%" viewBox="0 0 52 60" version="1.1" xmlns="http://www.w3.org/2000/svg" xmlns:xlink="http://www.w3.org/1999/xlink" xml:space="preserve" xmlns:serif="http://www.serif.com/" style="fill-rule:evenodd;clip-rule:evenodd;stroke-linejoin:round;stroke-miterlimit:2;">
    <g id="Ebene_2-2">
        <path d="M0,15L0,45L25.98,60L51.96,45L51.96,15L25.98,0L0,15Z" style="fill:rgb(3,124,141);fill-rule:nonzero;"/>
        <g transform="matrix(0.0219282,0,0,0.0219282,6.3323,11.7557)">
            <path d="M1600,736L1600,928C1600,954.667 1590.67,977.333 1572,996C1553.33,1014.67 1530.67,1024 1504,1024L1088,1024L1088,1440C1088,1466.67 1078.67,1489.33 1060,1508C1041.33,1526.67 1018.67,1536 992,1536L800,1536C773.333,1536 750.667,1526.67 732,1508C713.333,1489.33 704,1466.67 704,1440L704,1024L288,1024C261.333,1024 238.667,1014.67 220,996C201.333,977.333 192,954.667 192,928L192,736C192,709.333 201.333,686.667 220,668C238.667,649.333 261.333,640 288,640L704,640L704,224C704,197.333 713.333,174.667 732,156C750.667,137.333 773.333,128 800,128L992,128C1018.67,128 1041.33,137.333 1060,156C1078.67,174.667 1088,197.333 1088,224L1088,640L1504,640C1530.67,640 1553.33,649.333 1572,668C1590.67,686.667 1600,709.333 1600,736Z" style="fill:white;fill-rule:nonzero;"/>
        </g>
    </g>
</svg>
