<svg id="Layer_1" data-name="Layer 1" xmlns="http://www.w3.org/2000/svg" viewBox="0 0 24 24"><defs><style>.cls-1{fill:#fff;}</style></defs><title>Benutzer</title><path class="cls-1" d="M21,2a1,1,0,0,1,1,1V21a1,1,0,0,1-1,1H3a1,1,0,0,1-1-1V3A1,1,0,0,1,3,2H21m0-1H3A2,2,0,0,0,1,3V21a2,2,0,0,0,2,2H21a2,2,0,0,0,2-2V3a2,2,0,0,0-2-2Z"/><path class="cls-1" d="M14.68,14h-.95L12,17.43,10.27,14H9.32C6.38,14,4,16.72,4,20.08V22H20V20.08C20,16.72,17.62,14,14.68,14Z"/><circle cx="12" cy="9" r="4" class="cls-1"/></svg>