<svg id="Layer_1" data-name="Layer 1" xmlns="http://www.w3.org/2000/svg" viewBox="0 0 24 24"><defs><style>.cls-1{fill:#fff;}</style></defs><title>Abmelden</title><path class="cls-1" d="M12,23a10.92,10.92,0,0,1-7.78-3.22,1,1,0,0,1,1.42-1.42,9,9,0,1,0,0-12.72A1,1,0,0,1,4.22,4.22,11,11,0,1,1,12,23Z"/><path class="cls-1" d="M15.32,11H6.09L9.52,7.58A1,1,0,0,0,8.1,6.16L3,11.29a1,1,0,0,0-.21.33,1,1,0,0,0,0,.76,1,1,0,0,0,.21.33L8.1,17.84a1,1,0,0,0,1.42,0,1,1,0,0,0,0-1.42L6.09,13h9.23a1,1,0,0,0,0-2Z"/></svg>